<svg id="visual" viewBox="0 0 960 100" width="960" height="100" xmlns="http://www.w3.org/2000/svg" xmlns:xlink="http://www.w3.org/1999/xlink" version="1.1"><path d="M0 27L22.8 27.3C45.7 27.7 91.3 28.3 137 29.7C182.7 31 228.3 33 274 33.2C319.7 33.3 365.3 31.7 411.2 30.2C457 28.7 503 27.3 548.8 28.2C594.7 29 640.3 32 686 34C731.7 36 777.3 37 823 35.3C868.7 33.7 914.3 29.3 937.2 27.2L960 25L960 0L937.2 0C914.3 0 868.7 0 823 0C777.3 0 731.7 0 686 0C640.3 0 594.7 0 548.8 0C503 0 457 0 411.2 0C365.3 0 319.7 0 274 0C228.3 0 182.7 0 137 0C91.3 0 45.7 0 22.8 0L0 0Z" fill="#672681"></path><path d="M0 19L22.8 20.7C45.7 22.3 91.3 25.7 137 26C182.7 26.3 228.3 23.7 274 24C319.7 24.3 365.3 27.7 411.2 27.5C457 27.3 503 23.7 548.8 22.7C594.7 21.7 640.3 23.3 686 25.5C731.7 27.7 777.3 30.3 823 30C868.7 29.7 914.3 26.3 937.2 24.7L960 23L960 0L937.2 0C914.3 0 868.7 0 823 0C777.3 0 731.7 0 686 0C640.3 0 594.7 0 548.8 0C503 0 457 0 411.2 0C365.3 0 319.7 0 274 0C228.3 0 182.7 0 137 0C91.3 0 45.7 0 22.8 0L0 0Z" fill="#84227e"></path><path d="M0 15L22.8 16.2C45.7 17.3 91.3 19.7 137 20C182.7 20.3 228.3 18.7 274 17.5C319.7 16.3 365.3 15.7 411.2 17C457 18.3 503 21.7 548.8 21.5C594.7 21.3 640.3 17.7 686 16.5C731.7 15.3 777.3 16.7 823 17.3C868.7 18 914.3 18 937.2 18L960 18L960 0L937.2 0C914.3 0 868.7 0 823 0C777.3 0 731.7 0 686 0C640.3 0 594.7 0 548.8 0C503 0 457 0 411.2 0C365.3 0 319.7 0 274 0C228.3 0 182.7 0 137 0C91.3 0 45.7 0 22.8 0L0 0Z" fill="#9d1e79"></path><path d="M0 19L22.8 18.2C45.7 17.3 91.3 15.7 137 15C182.7 14.3 228.3 14.7 274 13.8C319.7 13 365.3 11 411.2 10.7C457 10.3 503 11.7 548.8 12C594.7 12.3 640.3 11.7 686 11.2C731.7 10.7 777.3 10.3 823 11.5C868.7 12.7 914.3 15.3 937.2 16.7L960 18L960 0L937.2 0C914.3 0 868.7 0 823 0C777.3 0 731.7 0 686 0C640.3 0 594.7 0 548.8 0C503 0 457 0 411.2 0C365.3 0 319.7 0 274 0C228.3 0 182.7 0 137 0C91.3 0 45.7 0 22.8 0L0 0Z" fill="#b31d71"></path><path d="M0 8L22.8 7.8C45.7 7.7 91.3 7.3 137 7C182.7 6.7 228.3 6.3 274 6.2C319.7 6 365.3 6 411.2 5.5C457 5 503 4 548.8 4C594.7 4 640.3 5 686 5.3C731.7 5.7 777.3 5.3 823 5.3C868.7 5.3 914.3 5.7 937.2 5.8L960 6L960 0L937.2 0C914.3 0 868.7 0 823 0C777.3 0 731.7 0 686 0C640.3 0 594.7 0 548.8 0C503 0 457 0 411.2 0C365.3 0 319.7 0 274 0C228.3 0 182.7 0 137 0C91.3 0 45.7 0 22.8 0L0 0Z" fill="#c62368"></path></svg>