<svg id="visual" viewBox="0 0 960 100" width="960" height="100" xmlns="http://www.w3.org/2000/svg" xmlns:xlink="http://www.w3.org/1999/xlink" version="1.1"><path d="M0 14L87 10L175 7L262 8L349 15L436 14L524 16L611 10L698 8L785 10L873 10L960 12L960 0L873 0L785 0L698 0L611 0L524 0L436 0L349 0L262 0L175 0L87 0L0 0Z" fill="#c561ec"></path><path d="M0 21L87 14L175 13L262 13L349 21L436 21L524 26L611 15L698 16L785 21L873 15L960 18L960 10L873 8L785 8L698 6L611 8L524 14L436 12L349 13L262 6L175 5L87 8L0 12Z" fill="#ae52db"></path><path d="M0 33L87 28L175 24L262 19L349 37L436 28L524 31L611 32L698 29L785 28L873 30L960 25L960 16L873 13L785 19L698 14L611 13L524 24L436 19L349 19L262 11L175 11L87 12L0 19Z" fill="#9743ca"></path><path d="M0 45L87 43L175 61L262 40L349 57L436 66L524 51L611 58L698 64L785 58L873 45L960 53L960 23L873 28L785 26L698 27L611 30L524 29L436 26L349 35L262 17L175 22L87 26L0 31Z" fill="#8034b9"></path><path d="M0 53L87 56L175 71L262 46L349 65L436 71L524 55L611 70L698 73L785 69L873 52L960 57L960 51L873 43L785 56L698 62L611 56L524 49L436 64L349 55L262 38L175 59L87 41L0 43Z" fill="#6926a8"></path><path d="M0 83L87 93L175 88L262 88L349 89L436 92L524 81L611 83L698 88L785 83L873 81L960 79L960 55L873 50L785 67L698 71L611 68L524 53L436 69L349 63L262 44L175 69L87 54L0 51Z" fill="#521798"></path><path d="M0 101L87 101L175 101L262 101L349 101L436 101L524 101L611 101L698 101L785 101L873 101L960 101L960 77L873 79L785 81L698 86L611 81L524 79L436 90L349 87L262 86L175 86L87 91L0 81Z" fill="#3a0787"></path></svg>