<svg id="visual" viewBox="0 0 960 50" width="960" height="50" xmlns="http://www.w3.org/2000/svg" xmlns:xlink="http://www.w3.org/1999/xlink" version="1.1"><path d="M0 5L10.7 5.7C21.3 6.3 42.7 7.7 64 7.8C85.3 8 106.7 7 128 7C149.3 7 170.7 8 192 7.8C213.3 7.7 234.7 6.3 256 5.5C277.3 4.7 298.7 4.3 320 4.2C341.3 4 362.7 4 384 4C405.3 4 426.7 4 448 4.5C469.3 5 490.7 6 512 6.3C533.3 6.7 554.7 6.3 576 6.3C597.3 6.3 618.7 6.7 640 6.7C661.3 6.7 682.7 6.3 704 6.3C725.3 6.3 746.7 6.7 768 7.2C789.3 7.7 810.7 8.3 832 8C853.3 7.7 874.7 6.3 896 5.8C917.3 5.3 938.7 5.7 949.3 5.8L960 6L960 0L949.3 0C938.7 0 917.3 0 896 0C874.7 0 853.3 0 832 0C810.7 0 789.3 0 768 0C746.7 0 725.3 0 704 0C682.7 0 661.3 0 640 0C618.7 0 597.3 0 576 0C554.7 0 533.3 0 512 0C490.7 0 469.3 0 448 0C426.7 0 405.3 0 384 0C362.7 0 341.3 0 320 0C298.7 0 277.3 0 256 0C234.7 0 213.3 0 192 0C170.7 0 149.3 0 128 0C106.7 0 85.3 0 64 0C42.7 0 21.3 0 10.7 0L0 0Z" fill="#8428ca"></path><path d="M0 13L10.7 13.2C21.3 13.3 42.7 13.7 64 14C85.3 14.3 106.7 14.7 128 15.8C149.3 17 170.7 19 192 18.3C213.3 17.7 234.7 14.3 256 13.5C277.3 12.7 298.7 14.3 320 15.2C341.3 16 362.7 16 384 15C405.3 14 426.7 12 448 12.7C469.3 13.3 490.7 16.7 512 17.8C533.3 19 554.7 18 576 18.8C597.3 19.7 618.7 22.3 640 22.5C661.3 22.7 682.7 20.3 704 19.3C725.3 18.3 746.7 18.7 768 18.5C789.3 18.3 810.7 17.7 832 17C853.3 16.3 874.7 15.7 896 15C917.3 14.3 938.7 13.7 949.3 13.3L960 13L960 4L949.3 3.8C938.7 3.7 917.3 3.3 896 3.8C874.7 4.3 853.3 5.7 832 6C810.7 6.3 789.3 5.7 768 5.2C746.7 4.7 725.3 4.3 704 4.3C682.7 4.3 661.3 4.7 640 4.7C618.7 4.7 597.3 4.3 576 4.3C554.7 4.3 533.3 4.7 512 4.3C490.7 4 469.3 3 448 2.5C426.7 2 405.3 2 384 2C362.7 2 341.3 2 320 2.2C298.7 2.3 277.3 2.7 256 3.5C234.7 4.3 213.3 5.7 192 5.8C170.7 6 149.3 5 128 5C106.7 5 85.3 6 64 5.8C42.7 5.7 21.3 4.3 10.7 3.7L0 3Z" fill="#4158d4"></path><path d="M0 29L10.7 29.3C21.3 29.7 42.7 30.3 64 30.3C85.3 30.3 106.7 29.7 128 29.8C149.3 30 170.7 31 192 30.3C213.3 29.7 234.7 27.3 256 26.5C277.3 25.7 298.7 26.3 320 27.5C341.3 28.7 362.7 30.3 384 30.2C405.3 30 426.7 28 448 27.3C469.3 26.7 490.7 27.3 512 26.8C533.3 26.3 554.7 24.7 576 25.5C597.3 26.3 618.7 29.7 640 30.2C661.3 30.7 682.7 28.3 704 28.2C725.3 28 746.7 30 768 30.3C789.3 30.7 810.7 29.3 832 28.5C853.3 27.7 874.7 27.3 896 27.8C917.3 28.3 938.7 29.7 949.3 30.3L960 31L960 11L949.3 11.3C938.7 11.7 917.3 12.3 896 13C874.7 13.7 853.3 14.3 832 15C810.7 15.7 789.3 16.3 768 16.5C746.7 16.7 725.3 16.3 704 17.3C682.7 18.3 661.3 20.7 640 20.5C618.7 20.3 597.3 17.7 576 16.8C554.7 16 533.3 17 512 15.8C490.7 14.7 469.3 11.3 448 10.7C426.7 10 405.3 12 384 13C362.7 14 341.3 14 320 13.2C298.7 12.3 277.3 10.7 256 11.5C234.7 12.3 213.3 15.7 192 16.3C170.7 17 149.3 15 128 13.8C106.7 12.7 85.3 12.3 64 12C42.7 11.7 21.3 11.3 10.7 11.2L0 11Z" fill="#006fca"></path><path d="M0 35L10.7 35.3C21.3 35.7 42.7 36.3 64 36.2C85.3 36 106.7 35 128 35.3C149.3 35.7 170.7 37.3 192 37.2C213.3 37 234.7 35 256 33.7C277.3 32.3 298.7 31.7 320 32.3C341.3 33 362.7 35 384 34.8C405.3 34.7 426.7 32.3 448 32C469.3 31.7 490.7 33.3 512 33.7C533.3 34 554.7 33 576 33.5C597.3 34 618.7 36 640 36.3C661.3 36.7 682.7 35.3 704 35.2C725.3 35 746.7 36 768 36.3C789.3 36.7 810.7 36.3 832 35.7C853.3 35 874.7 34 896 34C917.3 34 938.7 35 949.3 35.5L960 36L960 29L949.3 28.3C938.7 27.7 917.3 26.3 896 25.8C874.7 25.3 853.3 25.7 832 26.5C810.7 27.3 789.3 28.7 768 28.3C746.7 28 725.3 26 704 26.2C682.7 26.3 661.3 28.7 640 28.2C618.7 27.7 597.3 24.3 576 23.5C554.7 22.7 533.3 24.3 512 24.8C490.7 25.3 469.3 24.7 448 25.3C426.7 26 405.3 28 384 28.2C362.7 28.3 341.3 26.7 320 25.5C298.7 24.3 277.3 23.7 256 24.5C234.7 25.3 213.3 27.7 192 28.3C170.7 29 149.3 28 128 27.8C106.7 27.7 85.3 28.3 64 28.3C42.7 28.3 21.3 27.7 10.7 27.3L0 27Z" fill="#177cb3"></path><path d="M0 38L10.7 38.2C21.3 38.3 42.7 38.7 64 38.7C85.3 38.7 106.7 38.3 128 38.7C149.3 39 170.7 40 192 39.5C213.3 39 234.7 37 256 36.2C277.3 35.3 298.7 35.7 320 36.5C341.3 37.3 362.7 38.7 384 38.2C405.3 37.7 426.7 35.3 448 35.2C469.3 35 490.7 37 512 37.7C533.3 38.3 554.7 37.7 576 38.2C597.3 38.7 618.7 40.3 640 40.2C661.3 40 682.7 38 704 37.8C725.3 37.7 746.7 39.3 768 39.5C789.3 39.7 810.7 38.3 832 37.7C853.3 37 874.7 37 896 37.2C917.3 37.3 938.7 37.7 949.3 37.8L960 38L960 34L949.3 33.5C938.7 33 917.3 32 896 32C874.7 32 853.3 33 832 33.7C810.7 34.3 789.3 34.7 768 34.3C746.7 34 725.3 33 704 33.2C682.7 33.3 661.3 34.7 640 34.3C618.7 34 597.3 32 576 31.5C554.7 31 533.3 32 512 31.7C490.7 31.3 469.3 29.7 448 30C426.7 30.3 405.3 32.7 384 32.8C362.7 33 341.3 31 320 30.3C298.7 29.7 277.3 30.3 256 31.7C234.7 33 213.3 35 192 35.2C170.7 35.3 149.3 33.7 128 33.3C106.7 33 85.3 34 64 34.2C42.7 34.3 21.3 33.7 10.7 33.3L0 33Z" fill="#287eae"></path><path d="M0 42L10.7 42C21.3 42 42.7 42 64 42.3C85.3 42.7 106.7 43.3 128 43.7C149.3 44 170.7 44 192 43.7C213.3 43.3 234.7 42.7 256 42C277.3 41.3 298.7 40.7 320 41C341.3 41.3 362.7 42.7 384 42.5C405.3 42.3 426.7 40.7 448 40.5C469.3 40.3 490.7 41.7 512 41.8C533.3 42 554.7 41 576 41.2C597.3 41.3 618.7 42.7 640 43C661.3 43.3 682.7 42.7 704 42.5C725.3 42.3 746.7 42.7 768 42.3C789.3 42 810.7 41 832 40.8C853.3 40.7 874.7 41.3 896 41.7C917.3 42 938.7 42 949.3 42L960 42L960 36L949.3 35.8C938.7 35.7 917.3 35.3 896 35.2C874.7 35 853.3 35 832 35.7C810.7 36.3 789.3 37.7 768 37.5C746.7 37.3 725.3 35.7 704 35.8C682.7 36 661.3 38 640 38.2C618.7 38.3 597.3 36.7 576 36.2C554.7 35.7 533.3 36.3 512 35.7C490.7 35 469.3 33 448 33.2C426.7 33.3 405.3 35.7 384 36.2C362.7 36.7 341.3 35.3 320 34.5C298.7 33.7 277.3 33.3 256 34.2C234.7 35 213.3 37 192 37.5C170.7 38 149.3 37 128 36.7C106.7 36.3 85.3 36.7 64 36.7C42.7 36.7 21.3 36.3 10.7 36.2L0 36Z" fill="#177cb3"></path><path d="M0 45L10.7 45.3C21.3 45.7 42.7 46.3 64 46.5C85.3 46.7 106.7 46.3 128 46.2C149.3 46 170.7 46 192 45.7C213.3 45.3 234.7 44.7 256 44.2C277.3 43.7 298.7 43.3 320 43.7C341.3 44 362.7 45 384 45C405.3 45 426.7 44 448 43.8C469.3 43.7 490.7 44.3 512 44.5C533.3 44.7 554.7 44.3 576 44.5C597.3 44.7 618.7 45.3 640 45.5C661.3 45.7 682.7 45.3 704 45.7C725.3 46 746.7 47 768 47C789.3 47 810.7 46 832 45.3C853.3 44.7 874.7 44.3 896 44.5C917.3 44.7 938.7 45.3 949.3 45.7L960 46L960 40L949.3 40C938.7 40 917.3 40 896 39.7C874.7 39.3 853.3 38.7 832 38.8C810.7 39 789.3 40 768 40.3C746.7 40.7 725.3 40.3 704 40.5C682.7 40.7 661.3 41.3 640 41C618.7 40.7 597.3 39.3 576 39.2C554.7 39 533.3 40 512 39.8C490.7 39.7 469.3 38.3 448 38.5C426.7 38.7 405.3 40.3 384 40.5C362.7 40.7 341.3 39.3 320 39C298.7 38.7 277.3 39.3 256 40C234.7 40.7 213.3 41.3 192 41.7C170.7 42 149.3 42 128 41.7C106.7 41.3 85.3 40.7 64 40.3C42.7 40 21.3 40 10.7 40L0 40Z" fill="#006fca"></path><path d="M0 49L10.7 49C21.3 49 42.7 49 64 49C85.3 49 106.7 49 128 48.8C149.3 48.7 170.7 48.3 192 48.2C213.3 48 234.7 48 256 47.7C277.3 47.3 298.7 46.7 320 46.7C341.3 46.7 362.7 47.3 384 47.5C405.3 47.7 426.7 47.3 448 47.2C469.3 47 490.7 47 512 47C533.3 47 554.7 47 576 47.3C597.3 47.7 618.7 48.3 640 48.5C661.3 48.7 682.7 48.3 704 48.5C725.3 48.7 746.7 49.3 768 49.3C789.3 49.3 810.7 48.7 832 48.2C853.3 47.7 874.7 47.3 896 47.3C917.3 47.3 938.7 47.7 949.3 47.8L960 48L960 44L949.3 43.7C938.7 43.3 917.3 42.7 896 42.5C874.7 42.3 853.3 42.7 832 43.3C810.7 44 789.3 45 768 45C746.7 45 725.3 44 704 43.7C682.7 43.3 661.3 43.7 640 43.5C618.7 43.3 597.3 42.7 576 42.5C554.7 42.3 533.3 42.7 512 42.5C490.7 42.3 469.3 41.7 448 41.8C426.7 42 405.3 43 384 43C362.7 43 341.3 42 320 41.7C298.7 41.3 277.3 41.7 256 42.2C234.7 42.7 213.3 43.3 192 43.7C170.7 44 149.3 44 128 44.2C106.7 44.3 85.3 44.7 64 44.5C42.7 44.3 21.3 43.7 10.7 43.3L0 43Z" fill="#4158d4"></path><path d="M0 51L10.7 51C21.3 51 42.7 51 64 51C85.3 51 106.7 51 128 51C149.3 51 170.7 51 192 51C213.3 51 234.7 51 256 51C277.3 51 298.7 51 320 51C341.3 51 362.7 51 384 51C405.3 51 426.7 51 448 51C469.3 51 490.7 51 512 51C533.3 51 554.7 51 576 51C597.3 51 618.7 51 640 51C661.3 51 682.7 51 704 51C725.3 51 746.7 51 768 51C789.3 51 810.7 51 832 51C853.3 51 874.7 51 896 51C917.3 51 938.7 51 949.3 51L960 51L960 46L949.3 45.8C938.7 45.7 917.3 45.3 896 45.3C874.7 45.3 853.3 45.7 832 46.2C810.7 46.7 789.3 47.3 768 47.3C746.7 47.3 725.3 46.7 704 46.5C682.7 46.3 661.3 46.7 640 46.5C618.7 46.3 597.3 45.7 576 45.3C554.7 45 533.3 45 512 45C490.7 45 469.3 45 448 45.2C426.7 45.3 405.3 45.7 384 45.5C362.7 45.3 341.3 44.7 320 44.7C298.7 44.7 277.3 45.3 256 45.7C234.7 46 213.3 46 192 46.2C170.7 46.3 149.3 46.7 128 46.8C106.7 47 85.3 47 64 47C42.7 47 21.3 47 10.7 47L0 47Z" fill="#8428ca"></path></svg>