<svg id="visual" viewBox="0 0 960 50" width="960" height="50" xmlns="http://www.w3.org/2000/svg" xmlns:xlink="http://www.w3.org/1999/xlink" version="1.1"><path d="M0 27L137 25L274 17L411 17L549 28L686 21L823 17L960 28L960 0L823 0L686 0L549 0L411 0L274 0L137 0L0 0Z" fill="#701202"></path><path d="M0 18L137 13L274 15L411 18L549 16L686 23L823 16L960 17L960 0L823 0L686 0L549 0L411 0L274 0L137 0L0 0Z" fill="#8d0128"></path><path d="M0 10L137 16L274 9L411 12L549 17L686 10L823 15L960 9L960 0L823 0L686 0L549 0L411 0L274 0L137 0L0 0Z" fill="#a40051"></path><path d="M0 9L137 10L274 6L411 6L549 8L686 8L823 8L960 11L960 0L823 0L686 0L549 0L411 0L274 0L137 0L0 0Z" fill="#aa0086"></path><path d="M0 6L137 7L274 5L411 6L549 7L686 2L823 5L960 7L960 0L823 0L686 0L549 0L411 0L274 0L137 0L0 0Z" fill="#8428ca"></path></svg>